<svg width="25" height="25" viewBox="0 0 25 25" fill="none" xmlns="http://www.w3.org/2000/svg">
<g id="fluent-mdl2:coffee-script">
<path id="Vector" d="M6.94995 6.875C6.74683 6.875 6.57104 6.80078 6.42261 6.65234C6.27417 6.50391 6.19995 6.32812 6.19995 6.125C6.19995 5.94531 6.14526 5.78516 6.03589 5.64453C5.92651 5.50391 5.79761 5.38672 5.64917 5.29297C5.37573 5.10547 5.09839 4.91797 4.81714 4.73047C4.53589 4.54297 4.27026 4.33984 4.02026 4.12109C3.77026 3.90234 3.57495 3.64844 3.43433 3.35938C3.2937 3.07031 3.21558 2.74219 3.19995 2.375C3.19995 2.17188 3.27417 1.99609 3.42261 1.84766C3.57104 1.69922 3.74683 1.625 3.94995 1.625C4.15308 1.625 4.32886 1.69922 4.47729 1.84766C4.62573 1.99609 4.69995 2.17188 4.69995 2.375C4.69995 2.55469 4.75464 2.71484 4.86401 2.85547C4.97339 2.99609 5.10229 3.11328 5.25073 3.20703C5.51636 3.39453 5.7937 3.58203 6.08276 3.76953C6.37183 3.95703 6.63745 4.16016 6.87964 4.37891C7.12183 4.59766 7.31714 4.85156 7.46558 5.14062C7.61401 5.42969 7.69214 5.75781 7.69995 6.125C7.69995 6.32812 7.62573 6.50391 7.47729 6.65234C7.32886 6.80078 7.15308 6.875 6.94995 6.875ZM12.2 6.875C11.9968 6.875 11.821 6.80078 11.6726 6.65234C11.5242 6.50391 11.45 6.32812 11.45 6.125C11.45 5.94531 11.3953 5.78516 11.2859 5.64453C11.1765 5.50391 11.0476 5.38672 10.8992 5.29297C10.6257 5.10547 10.3484 4.91797 10.0671 4.73047C9.78589 4.54297 9.52026 4.33984 9.27026 4.12109C9.02026 3.90234 8.82495 3.64844 8.68433 3.35938C8.5437 3.07031 8.46558 2.74219 8.44995 2.375C8.44995 2.17188 8.52417 1.99609 8.67261 1.84766C8.82104 1.69922 8.99683 1.625 9.19995 1.625C9.40308 1.625 9.57886 1.69922 9.72729 1.84766C9.87573 1.99609 9.94995 2.17188 9.94995 2.375C9.94995 2.55469 10.0046 2.71484 10.114 2.85547C10.2234 2.99609 10.3523 3.11328 10.5007 3.20703C10.7664 3.39453 11.0437 3.58203 11.3328 3.76953C11.6218 3.95703 11.8875 4.16016 12.1296 4.37891C12.3718 4.59766 12.5671 4.85156 12.7156 5.14062C12.864 5.42969 12.9421 5.75781 12.95 6.125C12.95 6.32812 12.8757 6.50391 12.7273 6.65234C12.5789 6.80078 12.4031 6.875 12.2 6.875ZM17.45 6.875C17.2468 6.875 17.071 6.80078 16.9226 6.65234C16.7742 6.50391 16.7 6.32812 16.7 6.125C16.7 5.94531 16.6453 5.78516 16.5359 5.64453C16.4265 5.50391 16.2976 5.38672 16.1492 5.29297C15.8757 5.10547 15.5984 4.91797 15.3171 4.73047C15.0359 4.54297 14.7703 4.33984 14.5203 4.12109C14.2703 3.90234 14.075 3.64844 13.9343 3.35938C13.7937 3.07031 13.7156 2.74219 13.7 2.375C13.7 2.17188 13.7742 1.99609 13.9226 1.84766C14.071 1.69922 14.2468 1.625 14.45 1.625C14.6531 1.625 14.8289 1.69922 14.9773 1.84766C15.1257 1.99609 15.2 2.17188 15.2 2.375C15.2 2.55469 15.2546 2.71484 15.364 2.85547C15.4734 2.99609 15.6023 3.11328 15.7507 3.20703C16.0164 3.39453 16.2937 3.58203 16.5828 3.76953C16.8718 3.95703 17.1375 4.16016 17.3796 4.37891C17.6218 4.59766 17.8171 4.85156 17.9656 5.14062C18.114 5.42969 18.1921 5.75781 18.2 6.125C18.2 6.32812 18.1257 6.50391 17.9773 6.65234C17.8289 6.80078 17.6531 6.875 17.45 6.875ZM19.0085 15.5C18.7507 16.0859 18.4304 16.625 18.0476 17.1172C17.6648 17.6094 17.2351 18.0703 16.7585 18.5H21.95V20C21.95 20.3516 21.8953 20.7031 21.7859 21.0547C21.6765 21.4062 21.5203 21.7266 21.3171 22.0156C21.114 22.3047 20.8601 22.5391 20.5554 22.7188C20.2507 22.8984 19.9031 22.9922 19.5125 23H2.63745C2.24683 23 1.90308 22.9102 1.6062 22.7305C1.30933 22.5508 1.05542 22.3164 0.844482 22.0273C0.633545 21.7383 0.473389 21.418 0.364014 21.0664C0.254639 20.7148 0.199951 20.3594 0.199951 20V18.5H4.64136C3.71948 17.6953 3.00073 16.7617 2.48511 15.6992C1.96948 14.6367 1.70776 13.4883 1.69995 12.2539V8H20.5085C21.0242 8 21.5046 8.09766 21.95 8.29297C22.3953 8.48828 22.7859 8.75781 23.1218 9.10156C23.4578 9.44531 23.7195 9.84375 23.907 10.2969C24.0945 10.75 24.1921 11.2344 24.2 11.75C24.2 12.2578 24.1062 12.7383 23.9187 13.1914C23.7312 13.6445 23.4695 14.043 23.1335 14.3867C22.7976 14.7305 22.407 15 21.9617 15.1953C21.5164 15.3906 21.032 15.4922 20.5085 15.5H19.0085ZM19.7 9.5C19.7 9.82812 19.7039 10.1562 19.7117 10.4844C19.7195 10.8125 19.7234 11.1445 19.7234 11.4805C19.7234 11.9102 19.7117 12.3359 19.6882 12.7578C19.6648 13.1797 19.6023 13.5938 19.5007 14H20.5085C20.8132 14 21.0984 13.9414 21.364 13.8242C21.6296 13.707 21.864 13.543 22.0671 13.332C22.2703 13.1211 22.4226 12.8828 22.5242 12.6172C22.6257 12.3516 22.6843 12.0625 22.7 11.75C22.7 11.4453 22.6453 11.1562 22.5359 10.8828C22.4265 10.6094 22.2703 10.3711 22.0671 10.168C21.864 9.96484 21.6335 9.80469 21.3757 9.6875C21.1179 9.57031 20.8289 9.50781 20.5085 9.5H19.7ZM3.19995 12.2539C3.19995 12.9414 3.30151 13.6016 3.50464 14.2344C3.70776 14.8672 4.00073 15.4531 4.38354 15.9922C4.76636 16.5312 5.21167 17.0117 5.71948 17.4336C6.22729 17.8555 6.7937 18.2109 7.4187 18.5H13.9812C14.5984 18.2188 15.1648 17.8672 15.6804 17.4453C16.196 17.0234 16.6414 16.5391 17.0164 15.9922C17.3914 15.4453 17.6804 14.8594 17.8835 14.2344C18.0867 13.6094 18.1921 12.9492 18.2 12.2539V9.5H3.19995V12.2539ZM19.5125 21.5C19.6765 21.5 19.8171 21.4453 19.9343 21.3359C20.0515 21.2266 20.1492 21.0977 20.2273 20.9492C20.3054 20.8008 20.3601 20.6367 20.3914 20.457C20.4226 20.2773 20.4421 20.125 20.45 20H1.69995C1.69995 20.1328 1.71558 20.2852 1.74683 20.457C1.77808 20.6289 1.83667 20.7891 1.92261 20.9375C2.00854 21.0859 2.1062 21.2188 2.21558 21.3359C2.32495 21.4531 2.46558 21.5078 2.63745 21.5H19.5125Z" fill="#808080"/>
</g>
</svg>
