<svg width="25" height="25" viewBox="0 0 25 25" fill="none" xmlns="http://www.w3.org/2000/svg">
<g id="iconamoon:home-light">
<path id="Vector" d="M20.1498 10.5C20.1498 10.3011 20.0708 10.1103 19.9301 9.96968C19.7895 9.82903 19.5987 9.75001 19.3998 9.75001C19.2009 9.75001 19.0101 9.82903 18.8695 9.96968C18.7288 10.1103 18.6498 10.3011 18.6498 10.5H20.1498ZM6.14981 10.5C6.14981 10.3011 6.07079 10.1103 5.93014 9.96968C5.78949 9.82903 5.59872 9.75001 5.39981 9.75001C5.2009 9.75001 5.01013 9.82903 4.86948 9.96968C4.72883 10.1103 4.64981 10.3011 4.64981 10.5H6.14981ZM20.8698 13.03C20.9385 13.1037 21.0213 13.1628 21.1133 13.2038C21.2053 13.2448 21.3046 13.2668 21.4053 13.2686C21.506 13.2704 21.606 13.2519 21.6994 13.2141C21.7928 13.1764 21.8776 13.1203 21.9489 13.049C22.0201 12.9778 22.0762 12.893 22.1139 12.7996C22.1517 12.7062 22.1702 12.6062 22.1684 12.5055C22.1666 12.4048 22.1446 12.3055 22.1036 12.2135C22.0626 12.1215 22.0035 12.0387 21.9298 11.97L20.8698 13.03ZM12.3998 3.50001L12.9298 2.97001C12.7892 2.82956 12.5986 2.75067 12.3998 2.75067C12.2011 2.75067 12.0104 2.82956 11.8698 2.97001L12.3998 3.50001ZM2.86981 11.97C2.79613 12.0387 2.73702 12.1215 2.69603 12.2135C2.65504 12.3055 2.633 12.4048 2.63122 12.5055C2.62944 12.6062 2.64797 12.7062 2.68569 12.7996C2.72341 12.893 2.77955 12.9778 2.85077 13.049C2.92199 13.1203 3.00683 13.1764 3.10021 13.2141C3.1936 13.2519 3.29363 13.2704 3.39433 13.2686C3.49504 13.2668 3.59435 13.2448 3.68635 13.2038C3.77835 13.1628 3.86115 13.1037 3.92981 13.03L2.86981 11.97ZM7.39981 22.25H17.3998V20.75H7.39981V22.25ZM20.1498 19.5V10.5H18.6498V19.5H20.1498ZM6.14981 19.5V10.5H4.64981V19.5H6.14981ZM21.9298 11.97L12.9298 2.97001L11.8698 4.03001L20.8698 13.03L21.9298 11.97ZM11.8698 2.97001L2.86981 11.97L3.92981 13.03L12.9298 4.03001L11.8698 2.97001ZM17.3998 22.25C18.1292 22.25 18.8286 21.9603 19.3444 21.4446C19.8601 20.9288 20.1498 20.2294 20.1498 19.5H18.6498C18.6498 20.19 18.0898 20.75 17.3998 20.75V22.25ZM7.39981 20.75C6.70981 20.75 6.14981 20.19 6.14981 19.5H4.64981C4.64981 20.2294 4.93954 20.9288 5.45527 21.4446C5.97099 21.9603 6.67047 22.25 7.39981 22.25V20.75Z" fill="#808080"/>
</g>
</svg>
