<svg width="25" height="25" viewBox="0 0 25 25" fill="none" xmlns="http://www.w3.org/2000/svg">
<g id="typcn:directions">
<path id="Vector" d="M21.7078 10L18.9538 7.393C18.3412 6.83368 17.5461 6.51628 16.7168 6.5H13.7998V6C13.7998 5.60218 13.6418 5.22064 13.3605 4.93934C13.0792 4.65804 12.6976 4.5 12.2998 4.5C11.902 4.5 11.5204 4.65804 11.2391 4.93934C10.9578 5.22064 10.7998 5.60218 10.7998 6V6.5H7.2998C5.3698 6.5 3.7998 8.07 3.7998 10C3.7998 11.396 4.6278 12.596 5.8158 13.157L3.9718 15L6.5328 17.561C7.1028 18.131 7.99281 18.5 8.80081 18.5H11.0008L11.8008 22.5H12.8008L13.6008 18.5H16.3008C18.2318 18.5 19.8008 16.93 19.8008 15C19.8008 14.098 19.4478 13.282 18.8858 12.661L18.9578 12.605L21.7078 10ZM16.2998 16.5H8.7998C8.5248 16.5 8.1418 16.342 7.9458 16.146L6.7998 15L7.9458 13.854C8.1408 13.659 8.5228 13.5 8.7998 13.5H16.2998C16.6976 13.5 17.0792 13.658 17.3605 13.9393C17.6418 14.2206 17.7998 14.6022 17.7998 15C17.7998 15.3978 17.6418 15.7794 17.3605 16.0607C17.0792 16.342 16.6976 16.5 16.2998 16.5ZM17.5788 11.156C17.3798 11.346 16.9928 11.5 16.7168 11.5H7.2998C6.90198 11.5 6.52045 11.342 6.23914 11.0607C5.95784 10.7794 5.7998 10.3978 5.7998 10C5.7998 9.60218 5.95784 9.22064 6.23914 8.93934C6.52045 8.65804 6.90198 8.5 7.2998 8.5H16.7168C16.9928 8.5 17.3798 8.654 17.5788 8.844L18.7998 10L17.5788 11.156Z" fill="#808080"/>
</g>
</svg>
