<svg width="25" height="25" viewBox="0 0 25 25" fill="none" xmlns="http://www.w3.org/2000/svg">
<g id="fluent:settings-28-regular">
<path id="Vector" d="M12.5999 8.64287C12.0934 8.64287 11.5918 8.74263 11.1239 8.93647C10.6559 9.13031 10.2307 9.41443 9.87251 9.7726C9.51434 10.1308 9.23022 10.556 9.03638 11.0239C8.84254 11.4919 8.74277 11.9935 8.74277 12.5C8.74277 13.0065 8.84254 13.5081 9.03638 13.9761C9.23022 14.444 9.51434 14.8693 9.87251 15.2274C10.2307 15.5856 10.6559 15.8697 11.1239 16.0635C11.5918 16.2574 12.0934 16.3572 12.5999 16.3572C13.6229 16.3572 14.604 15.9508 15.3273 15.2274C16.0507 14.5041 16.4571 13.523 16.4571 12.5C16.4571 11.477 16.0507 10.496 15.3273 9.7726C14.604 9.04924 13.6229 8.64287 12.5999 8.64287ZM10.0285 12.5C10.0285 12.1623 10.095 11.8279 10.2242 11.516C10.3535 11.204 10.5429 10.9205 10.7816 10.6817C11.0204 10.443 11.3039 10.2535 11.6159 10.1243C11.9279 9.99509 12.2622 9.92858 12.5999 9.92858C12.9376 9.92858 13.272 9.99509 13.584 10.1243C13.8959 10.2535 14.1794 10.443 14.4182 10.6817C14.657 10.9205 14.8464 11.204 14.9756 11.516C15.1048 11.8279 15.1713 12.1623 15.1713 12.5C15.1713 13.182 14.9004 13.836 14.4182 14.3183C13.936 14.8005 13.2819 15.0714 12.5999 15.0714C11.9179 15.0714 11.2639 14.8005 10.7816 14.3183C10.2994 13.836 10.0285 13.182 10.0285 12.5ZM19.2085 19.6957L17.7273 19.0452C17.5165 18.9536 17.2872 18.9125 17.0578 18.9253C16.8283 18.9381 16.6049 19.0044 16.4056 19.1189C16.0053 19.3503 15.7499 19.7592 15.6993 20.2194L15.5211 21.8309C15.5031 21.9928 15.4356 22.1452 15.3277 22.2674C15.2199 22.3895 15.077 22.4753 14.9185 22.5132C13.3936 22.8767 11.8046 22.8767 10.2796 22.5132C10.1213 22.4752 9.97859 22.3892 9.8709 22.2671C9.76322 22.145 9.69582 21.9927 9.67792 21.8309L9.49963 20.222C9.47403 19.9956 9.39572 19.7783 9.27098 19.5876C9.14624 19.397 8.97854 19.2382 8.78135 19.124C8.58435 19.0101 8.36334 18.9441 8.13613 18.9313C7.90893 18.9184 7.68189 18.9592 7.47335 19.0503L5.9922 19.7009C5.84248 19.7666 5.676 19.7842 5.51583 19.7512C5.35566 19.7182 5.20971 19.6362 5.0982 19.5166C4.03215 18.3742 3.23885 17.005 2.77792 15.512C2.72945 15.3551 2.73097 15.187 2.78226 15.031C2.83355 14.8749 2.93208 14.7387 3.0642 14.6412L4.37306 13.6743C4.55732 13.5389 4.70714 13.3621 4.8104 13.1581C4.91366 12.9541 4.96746 12.7287 4.96746 12.5C4.96746 12.2714 4.91366 12.0459 4.8104 11.8419C4.70714 11.6379 4.55732 11.4611 4.37306 11.3257L3.0642 10.3614C2.93191 10.2638 2.83327 10.1275 2.78197 9.97126C2.73067 9.81506 2.72926 9.64677 2.77792 9.48972C3.2398 7.99801 4.03368 6.63035 5.09992 5.48944C5.21153 5.36995 5.35752 5.28812 5.51769 5.25526C5.67785 5.22239 5.84427 5.24013 5.99392 5.30601L7.4682 5.95487C7.67797 6.04515 7.90597 6.08507 8.13394 6.07145C8.3619 6.05782 8.58352 5.99102 8.78104 5.87639C8.97856 5.76175 9.14651 5.60248 9.27144 5.4113C9.39637 5.22013 9.47481 5.00236 9.50049 4.77544L9.68049 3.16572C9.69861 3.00197 9.76741 2.84795 9.87728 2.72518C9.98714 2.60241 10.1326 2.51699 10.2933 2.48087C11.0485 2.31287 11.8191 2.22372 12.6111 2.21429C13.3842 2.22287 14.1539 2.31287 14.9082 2.48087C15.0691 2.51693 15.2147 2.60243 15.3246 2.72539C15.4346 2.84836 15.5032 3.00263 15.5211 3.16658L15.7002 4.77629C15.7388 5.13328 15.9078 5.46345 16.1748 5.70355C16.4418 5.94364 16.788 6.07678 17.1471 6.07744C17.3468 6.07744 17.5448 6.03544 17.7299 5.95401L19.2042 5.30515C19.3538 5.23927 19.5203 5.22154 19.6804 5.2544C19.8406 5.28726 19.9866 5.3691 20.0982 5.48858C21.1642 6.62954 21.9578 7.99721 22.4193 9.48887C22.4679 9.6457 22.4665 9.81376 22.4154 9.96977C22.3642 10.1258 22.2659 10.2621 22.1339 10.3597L20.8268 11.3257C20.4539 11.6 20.2285 12.0363 20.2285 12.5C20.2285 12.9629 20.4539 13.3992 20.8276 13.6743L22.1356 14.6394C22.4065 14.84 22.5213 15.1897 22.4219 15.5112C21.9604 17.0026 21.1671 18.3703 20.1016 19.5114C19.9901 19.6311 19.8442 19.7131 19.684 19.7461C19.5238 19.7791 19.3582 19.7615 19.2085 19.6957ZM14.5388 19.526C14.7433 18.8855 15.1786 18.3438 15.7602 18.0063C16.1343 17.7907 16.5538 17.6659 16.9849 17.642C17.416 17.618 17.8468 17.6955 18.2425 17.8683L19.3945 18.374C20.1345 17.5172 20.7072 16.5293 21.0831 15.4614L20.0639 14.7097C19.7169 14.455 19.4347 14.1214 19.2398 13.7376C19.0449 13.3538 18.9429 12.9296 18.9419 12.4992C18.9419 11.6189 19.3679 10.802 20.0622 10.2912L20.0639 10.2903L21.0813 9.53858C20.7052 8.47091 20.1322 7.48326 19.3919 6.62687L18.2493 7.12915L18.2476 7.13001C17.8996 7.2843 17.5251 7.36315 17.1453 7.36315C16.4701 7.36214 15.8189 7.11223 15.3164 6.66123C14.8138 6.21022 14.4952 5.58979 14.4213 4.91858V4.91687L14.2816 3.66544C13.7302 3.56274 13.171 3.5074 12.6102 3.50001C12.0423 3.50715 11.4759 3.5625 10.9173 3.66544L10.7776 4.91772C10.7295 5.34495 10.5819 5.75495 10.3466 6.11476C10.1113 6.47457 9.79486 6.77418 9.42274 6.9895C9.05061 7.20482 8.63318 7.32985 8.20396 7.35455C7.77474 7.37925 7.34571 7.30293 6.95135 7.13172L5.8062 6.62772C5.06591 7.48409 4.49285 8.47175 4.11678 9.53944L5.13678 10.2912C5.48302 10.5461 5.76449 10.8789 5.95847 11.2627C6.15245 11.6465 6.25352 12.0704 6.25352 12.5004C6.25352 12.9304 6.15245 13.3544 5.95847 13.7382C5.76449 14.1219 5.48302 14.4547 5.13678 14.7097L4.11678 15.4623C4.49215 16.5317 5.06492 17.5211 5.80535 18.3792L6.9582 17.8734C7.35136 17.7013 7.77947 17.6241 8.20798 17.6479C8.63649 17.6717 9.0534 17.796 9.42506 18.0106C9.79656 18.2252 10.1125 18.524 10.3476 18.8829C10.5827 19.2418 10.7302 19.6508 10.7785 20.0772V20.0814L10.9173 21.3363C12.0291 21.5549 13.1716 21.5549 14.2833 21.3363L14.4222 20.0789C14.4428 19.8903 14.4822 19.7043 14.5405 19.526" fill="#808080"/>
</g>
</svg>
